<?xml version="1.0" standalone="no"?>
<!DOCTYPE svg PUBLIC "-//W3C//DTD SVG 20010904//EN"
 "http://www.w3.org/TR/2001/REC-SVG-20010904/DTD/svg10.dtd">
<svg version="1.0" xmlns="http://www.w3.org/2000/svg"
 width="159.000000pt" height="159.000000pt" viewBox="0 0 159.000000 159.000000"
 preserveAspectRatio="xMidYMid meet">
<metadata>
Created by potrace 1.14, written by Peter Selinger 2001-2017
</metadata>
<g transform="translate(0.000000,159.000000) scale(0.100000,-0.100000)"
fill="#000000" stroke="none">
<path d="M783 1528 c-10 -14 -105 -186 -112 -203 -7 -20 -45 -55 -59 -55 -9 0
-23 -7 -32 -15 -9 -8 -25 -16 -36 -18 -10 -2 -26 -7 -34 -10 -12 -5 -55 -3
-55 3 0 1 -15 4 -32 6 l-33 5 0 -50 c0 -38 -5 -56 -20 -71 -11 -11 -20 -23
-20 -27 0 -5 -8 -17 -17 -28 -10 -11 -17 -23 -15 -27 1 -4 -4 -5 -12 -2 -7 3
-21 -2 -30 -12 -9 -9 -20 -14 -23 -10 -3 3 -12 1 -18 -4 -7 -6 -27 -12 -44
-13 -17 -1 -31 -4 -31 -7 0 -3 -16 -6 -36 -7 -46 -2 -66 -19 -43 -36 8 -7 31
-33 50 -58 19 -26 51 -67 72 -92 21 -25 40 -59 42 -74 13 -102 14 -142 5 -148
-6 -4 -8 -10 -5 -14 2 -5 -4 -16 -15 -26 -25 -23 -25 -42 0 -50 11 -3 20 -11
20 -16 0 -5 11 -9 25 -9 18 0 32 -11 52 -41 25 -38 27 -48 26 -148 -1 -58 -4
-123 -7 -143 -4 -25 -1 -40 9 -48 12 -10 15 -10 15 0 0 7 7 10 15 6 8 -3 15
-2 15 2 0 10 50 32 72 32 10 0 18 4 18 9 0 9 45 31 71 34 8 2 29 9 47 16 29
12 35 12 43 0 6 -10 9 -10 9 -2 0 9 7 10 23 4 33 -14 57 -21 60 -18 2 1 15
-11 30 -26 l26 -29 33 19 c18 10 35 20 38 23 3 3 18 12 34 20 44 23 104 16
171 -18 67 -34 174 -82 184 -82 11 0 11 82 0 102 -7 13 -6 18 3 18 10 0 10 2
0 9 -8 4 -13 11 -13 15 1 3 1 7 0 9 0 1 -1 33 -3 70 -2 59 1 74 23 108 14 21
31 39 39 39 7 0 11 4 8 9 -3 5 6 12 22 17 68 19 73 23 59 47 -7 12 -18 27 -24
35 -7 7 -13 18 -14 23 -2 15 -1 49 1 54 5 14 2 73 -4 83 -4 7 -2 12 4 12 6 0
8 4 5 10 -3 5 4 20 17 33 13 13 36 42 52 65 16 23 40 53 54 67 13 14 22 25 18
25 -4 0 2 13 13 29 l21 29 -48 8 c-26 4 -49 8 -52 9 -3 1 -33 7 -67 15 -60 12
-113 45 -113 70 0 5 -4 10 -10 10 -5 0 -10 7 -10 15 0 8 -4 15 -8 15 -8 0 -13
32 -15 89 l0 33 -56 -5 c-35 -4 -61 -1 -70 6 -12 9 -13 9 -7 0 4 -7 2 -13 -3
-13 -6 0 -11 5 -11 10 0 6 -5 10 -11 10 -26 0 -100 43 -119 70 -12 16 -18 30
-13 30 4 0 4 4 -2 8 -9 6 -30 43 -74 127 -29 54 -49 67 -68 43z"/>
</g>
</svg>
